# xmcd CD database file
#
# Track frame offsets:
#	150
#	16681
#	39006
#	67170
#	95858
#	120692
#	141829
#	175056
#	187780
#	219407
#	250230
#	276555
#
# Disc length: 4118 seconds
#
# Revision: 0
# Processed by: cddbd v1.5.2PL0 Copyright (c) Steve Scherf et al.
# Submitted via: CDex 1.51
#
DISCID=a910140c
DTITLE=Max Roach - Members, Don't Git Weary - Lift Every Voice and Sing
DYEAR=1900
DGENRE=Jazz
TTITLE0=Abstrutions
TTITLE1=Libra
TTITLE2=Effi
TTITLE3=Equipoise
TTITLE4=Members, Don't Git Weary
TTITLE5=Absolutions
TTITLE6=Motherless Child
TTITLE7=Garden of Prayer
TTITLE8=Troubled Waters
TTITLE9=Let They People Go
TTITLE10=Were You There When They Crucified My Lord
TTITLE11=Joshua
EXTD=
EXTT0=
EXTT1=
EXTT2=
EXTT3=
EXTT4=
EXTT5=
EXTT6=
EXTT7=
EXTT8=
EXTT9=
EXTT10=
EXTT11=
PLAYORDER=
